<svg width="900" height="900" viewBox="0 0 900 900" fill="none" xmlns="http://www.w3.org/2000/svg">
<rect width="900" height="900" rx="50" fill="white"/>
<path d="M222 149V751H525.333C565.558 751 604.135 738.315 632.578 715.736C661.021 693.156 677 662.532 677 630.6V269.4C677 237.468 661.021 206.844 632.578 184.264C604.135 161.685 565.558 149 525.333 149H222ZM373.667 269.4H525.333V630.6H373.667V269.4Z" fill="#0D6EFD"/>
<path d="M0 50C0 22.3858 22.3858 0 50 0H850C877.614 0 900 22.3858 900 50V97.7716H0V50Z" fill="#FE4300"/>
<path d="M900 850C900 877.614 877.614 900 850 900L50.0001 900C22.3858 900 6.10352e-05 877.614 6.10352e-05 850V802.228L900 802.228V850Z" fill="#FE4300"/>
<path d="M850 0C877.614 0 900 22.3858 900 50V850C900 877.614 877.614 900 850 900H802.5V0L850 0Z" fill="#FE4300"/>
<path d="M50 900C22.3858 900 0 877.614 0 850L0 50C0 22.3858 22.3858 0 50 0H97.5L97.5 900H50Z" fill="#FE4300"/>
</svg>
