<svg width="900" height="900" viewBox="0 0 900 900" fill="none" xmlns="http://www.w3.org/2000/svg">
<rect width="900" height="900" rx="50" fill="white"/>
<path d="M60 140C60 112.386 82.3858 90 110 90H790C817.614 90 840 112.386 840 140V168.217H60V140Z" fill="#FE4300"/>
<path d="M840 760C840 787.614 817.614 810 790 810L110 810C82.3858 810 60.0001 787.614 60.0001 760V731.783L840 731.783V760Z" fill="#FE4300"/>
<path d="M790 90C817.614 90 840 112.386 840 140V760C840 787.614 817.614 810 790 810H755.5V90H790Z" fill="#FE4300"/>
<path d="M110 810C82.3858 810 60 787.614 60 760L60 140C60 112.386 82.3858 90 110 90H144.5L144.5 810H110Z" fill="#FE4300"/>
<rect x="203" y="256.462" width="108.333" height="389.081" fill="#0092DB"/>
<rect x="359" y="356.74" width="100.279" height="338" transform="rotate(-90 359 356.74)" fill="#0092DB"/>
<rect x="359" y="501.143" width="100.279" height="338" transform="rotate(-90 359 501.143)" fill="#0092DB"/>
<rect x="359" y="645.544" width="100.279" height="338" transform="rotate(-90 359 645.544)" fill="#FE4300"/>
</svg>
